<?xml version="1.0" ?><svg fill="none" height="1024" viewBox="0 0 1024 1024" width="1024" xmlns="http://www.w3.org/2000/svg"><rect height="495" rx="17.5" stroke="black" stroke-width="15" width="332" x="345.5" y="264.5"/><rect height="130" stroke="black" stroke-width="15" width="227" x="398.5" y="305.5"/><path d="M401.5 402.501C401.5 402.501 445 364.501 512 365.001C579 365.501 624 402.501 624 402.501" stroke="black" stroke-linecap="round" stroke-width="15"/><path d="M511 431L598 342M436 385L443.5 401M511 366V390M594.5 385L587.5 401" stroke="black" stroke-linecap="round" stroke-width="15"/><circle cx="430" cy="501" r="17.5" stroke="black" stroke-width="15"/><circle cx="595" cy="501" r="17.5" stroke="black" stroke-width="15"/><mask fill="white" id="path-7-inside-1_556_119"><path d="M518.5 691C502.454 691 487.066 685.732 475.72 676.355C464.374 666.979 458 654.261 458 641C458 627.739 464.374 615.021 475.72 605.645C487.066 596.268 502.454 591 518.5 591V641L518.5 691Z"/></mask><path d="M518.5 691C502.454 691 487.066 685.732 475.72 676.355C464.374 666.979 458 654.261 458 641C458 627.739 464.374 615.021 475.72 605.645C487.066 596.268 502.454 591 518.5 591V641L518.5 691Z" mask="url(#path-7-inside-1_556_119)" stroke="black" stroke-width="30"/><mask fill="white" id="path-8-inside-2_556_119"><path d="M504.5 691C520.546 691 535.934 685.732 547.28 676.355C558.626 666.979 565 654.261 565 641C565 627.739 558.626 615.021 547.28 605.645C535.934 596.268 520.546 591 504.5 591V641L504.5 691Z"/></mask><path d="M504.5 691C520.546 691 535.934 685.732 547.28 676.355C558.626 666.979 565 654.261 565 641C565 627.739 558.626 615.021 547.28 605.645C535.934 596.268 520.546 591 504.5 591V641L504.5 691Z" mask="url(#path-8-inside-2_556_119)" stroke="black" stroke-width="30"/><rect height="131.5" stroke="black" stroke-width="7.5" width="7.5" x="507.75" y="575.75"/></svg>